<svg width="26" height="27" viewBox="0 0 26 27" fill="none" xmlns="http://www.w3.org/2000/svg">
<path d="M24.3287 13.3811C24.3287 12.4508 24.2517 11.7719 24.085 11.0679H13.2451V15.2668H19.6079C19.4797 16.3103 18.7869 17.8818 17.2475 18.9377L17.2259 19.0783L20.6533 21.6803L20.8907 21.7036C23.0715 19.7298 24.3287 16.8257 24.3287 13.3811Z" fill="#4285F4"/>
<path d="M13.2446 24.4443C16.3618 24.4443 18.9787 23.4385 20.8902 21.7037L17.247 18.9378C16.272 19.6041 14.9635 20.0693 13.2446 20.0693C10.1915 20.0693 7.6002 18.0956 6.67648 15.3675L6.54109 15.3787L2.97727 18.0817L2.93066 18.2087C4.82922 21.9048 8.72901 24.4443 13.2446 24.4443Z" fill="#34A853"/>
<path d="M6.67653 15.3675C6.4328 14.6635 6.29174 13.9092 6.29174 13.1298C6.29174 12.3503 6.4328 11.596 6.66371 10.892L6.65725 10.7421L3.04877 7.99571L2.9307 8.05075C2.14821 9.58451 1.69922 11.3069 1.69922 13.1298C1.69922 14.9527 2.14821 16.6749 2.9307 18.2087L6.67653 15.3675Z" fill="#FBBC05"/>
<path d="M13.2446 6.19019C15.4126 6.19019 16.875 7.10791 17.7089 7.87484L20.9672 4.75704C18.9661 2.93415 16.3619 1.81526 13.2446 1.81526C8.72904 1.81526 4.82923 4.35473 2.93066 8.05078L6.66368 10.892C7.60023 8.16397 10.1915 6.19019 13.2446 6.19019Z" fill="#EB4335"/>
</svg>
