<svg width="291" height="69" viewBox="0 0 291 69" fill="none" xmlns="http://www.w3.org/2000/svg">
<rect width="290.035" height="68.31" rx="30.6541" fill="#1A998E"/>
<path d="M86.7038 42.6851V24.5284H90.9318L98.4538 36.8749H96.2231L103.538 24.5284H107.766L107.817 42.6851H103.097L103.045 31.7133H103.849L98.376 40.8953H96.0934L90.4649 31.7133H91.4505V42.6851H86.7038ZM116.457 42.9185C114.918 42.9185 113.552 42.6072 112.359 41.9847C111.166 41.3622 110.224 40.5063 109.532 39.4169C108.858 38.3102 108.52 37.0479 108.52 35.6299C108.52 34.212 108.858 32.9583 109.532 31.8689C110.224 30.7795 111.166 29.9322 112.359 29.327C113.552 28.7044 114.918 28.3932 116.457 28.3932C117.996 28.3932 119.362 28.7044 120.556 29.327C121.766 29.9322 122.709 30.7795 123.383 31.8689C124.057 32.9583 124.394 34.212 124.394 35.6299C124.394 37.0479 124.057 38.3102 123.383 39.4169C122.709 40.5063 121.766 41.3622 120.556 41.9847C119.362 42.6072 117.996 42.9185 116.457 42.9185ZM116.457 39.0019C117.028 39.0019 117.53 38.8722 117.962 38.6128C118.411 38.3534 118.766 37.973 119.025 37.4715C119.285 36.9527 119.414 36.3389 119.414 35.6299C119.414 34.9209 119.285 34.3244 119.025 33.8402C118.766 33.3387 118.411 32.9583 117.962 32.6989C117.53 32.4395 117.028 32.3098 116.457 32.3098C115.904 32.3098 115.403 32.4395 114.953 32.6989C114.521 32.9583 114.166 33.3387 113.89 33.8402C113.63 34.3244 113.5 34.9209 113.5 35.6299C113.5 36.3389 113.63 36.9527 113.89 37.4715C114.166 37.973 114.521 38.3534 114.953 38.6128C115.403 38.8722 115.904 39.0019 116.457 39.0019ZM131.917 42.9185C130.378 42.9185 129.012 42.6072 127.819 41.9847C126.626 41.3622 125.683 40.5063 124.991 39.4169C124.317 38.3102 123.98 37.0479 123.98 35.6299C123.98 34.212 124.317 32.9583 124.991 31.8689C125.683 30.7795 126.626 29.9322 127.819 29.327C129.012 28.7044 130.378 28.3932 131.917 28.3932C133.456 28.3932 134.822 28.7044 136.015 29.327C137.226 29.9322 138.168 30.7795 138.842 31.8689C139.517 32.9583 139.854 34.212 139.854 35.6299C139.854 37.0479 139.517 38.3102 138.842 39.4169C138.168 40.5063 137.226 41.3622 136.015 41.9847C134.822 42.6072 133.456 42.9185 131.917 42.9185ZM131.917 39.0019C132.488 39.0019 132.989 38.8722 133.421 38.6128C133.871 38.3534 134.225 37.973 134.485 37.4715C134.744 36.9527 134.874 36.3389 134.874 35.6299C134.874 34.9209 134.744 34.3244 134.485 33.8402C134.225 33.3387 133.871 32.9583 133.421 32.6989C132.989 32.4395 132.488 32.3098 131.917 32.3098C131.364 32.3098 130.862 32.4395 130.413 32.6989C129.98 32.9583 129.626 33.3387 129.349 33.8402C129.09 34.3244 128.96 34.9209 128.96 35.6299C128.96 36.3389 129.09 36.9527 129.349 37.4715C129.626 37.973 129.98 38.3534 130.413 38.6128C130.862 38.8722 131.364 39.0019 131.917 39.0019ZM146.443 42.9185C145.163 42.9185 143.996 42.6245 142.941 42.0366C141.903 41.4314 141.073 40.5927 140.451 39.5206C139.828 38.4312 139.517 37.1343 139.517 35.6299C139.517 34.1428 139.828 32.8632 140.451 31.7911C141.073 30.7017 141.903 29.863 142.941 29.2751C143.996 28.6872 145.163 28.3932 146.443 28.3932C147.653 28.3932 148.673 28.6526 149.503 29.1713C150.351 29.6901 150.99 30.4855 151.423 31.5576C151.855 32.6297 152.071 33.9872 152.071 35.6299C152.071 37.3072 151.864 38.682 151.449 39.7541C151.034 40.8262 150.411 41.6216 149.581 42.1404C148.751 42.6591 147.705 42.9185 146.443 42.9185ZM147.48 39.0019C148.034 39.0019 148.526 38.8722 148.959 38.6128C149.408 38.3534 149.763 37.973 150.022 37.4715C150.281 36.9527 150.411 36.3389 150.411 35.6299C150.411 34.9209 150.281 34.3244 150.022 33.8402C149.763 33.3387 149.408 32.9583 148.959 32.6989C148.526 32.4395 148.034 32.3098 147.48 32.3098C146.91 32.3098 146.399 32.4395 145.95 32.6989C145.518 32.9583 145.172 33.3387 144.912 33.8402C144.653 34.3244 144.523 34.9209 144.523 35.6299C144.523 36.3389 144.653 36.9527 144.912 37.4715C145.172 37.973 145.518 38.3534 145.95 38.6128C146.399 38.8722 146.91 39.0019 147.48 39.0019ZM150.567 42.6851V40.2728L150.593 35.6299L150.333 30.987V23.439H155.262V42.6851H150.567ZM156.85 42.6851V24.5284H161.078L168.6 36.8749H166.369L173.684 24.5284H177.912L177.964 42.6851H173.243L173.191 31.7133H173.995L168.522 40.8953H166.24L160.611 31.7133H161.597V42.6851H156.85ZM186.915 42.9185C185.255 42.9185 183.802 42.6072 182.557 41.9847C181.33 41.3449 180.37 40.4803 179.678 39.3909C179.004 38.2842 178.667 37.0306 178.667 35.6299C178.667 34.2293 178.995 32.9842 179.652 31.8948C180.327 30.7881 181.252 29.9322 182.428 29.327C183.604 28.7044 184.926 28.3932 186.396 28.3932C187.78 28.3932 189.042 28.6785 190.183 29.2491C191.324 29.8025 192.232 30.6239 192.907 31.7133C193.581 32.8027 193.918 34.1255 193.918 35.6818C193.918 35.8547 193.91 36.0536 193.892 36.2784C193.875 36.5032 193.858 36.7107 193.84 36.9009H182.713V34.3071H191.221L189.353 35.0333C189.37 34.3935 189.249 33.8402 188.99 33.3733C188.748 32.9064 188.402 32.5433 187.952 32.2839C187.52 32.0245 187.01 31.8948 186.422 31.8948C185.834 31.8948 185.315 32.0245 184.866 32.2839C184.434 32.5433 184.096 32.9151 183.854 33.3992C183.612 33.8661 183.491 34.4195 183.491 35.0593V35.8115C183.491 36.5032 183.629 37.0997 183.906 37.6012C184.2 38.1027 184.615 38.4917 185.151 38.7684C185.687 39.0278 186.327 39.1575 187.071 39.1575C187.762 39.1575 188.35 39.0624 188.834 38.8722C189.336 38.6647 189.829 38.3534 190.313 37.9384L192.907 40.636C192.232 41.3795 191.402 41.9501 190.417 42.3479C189.431 42.7283 188.264 42.9185 186.915 42.9185ZM203.531 28.3932C204.62 28.3932 205.606 28.618 206.488 29.0676C207.37 29.4999 208.061 30.1743 208.563 31.0907C209.082 32.0072 209.341 33.1917 209.341 34.6443V42.6851H204.413V35.4483C204.413 34.4454 204.205 33.7191 203.79 33.2695C203.393 32.8027 202.831 32.5692 202.104 32.5692C201.586 32.5692 201.11 32.6903 200.678 32.9323C200.245 33.1571 199.908 33.5116 199.666 33.9958C199.424 34.48 199.303 35.1111 199.303 35.8893V42.6851H194.375V28.6266H199.07V32.6211L198.162 31.4539C198.698 30.4336 199.433 29.6728 200.366 29.1713C201.3 28.6526 202.355 28.3932 203.531 28.3932ZM216.896 42.9185C215.098 42.9185 213.697 42.4776 212.695 41.5957C211.692 40.6965 211.19 39.3477 211.19 37.5493V25.4881H216.118V37.4974C216.118 37.9989 216.257 38.3966 216.533 38.6906C216.81 38.9673 217.165 39.1056 217.597 39.1056C218.185 39.1056 218.686 38.9586 219.101 38.6647L220.32 42.1144C219.905 42.3911 219.395 42.59 218.79 42.711C218.185 42.8493 217.554 42.9185 216.896 42.9185ZM209.141 32.8286V29.1454H219.335V32.8286H209.141ZM227.055 42.9185C225.516 42.9185 224.15 42.6072 222.957 41.9847C221.764 41.3622 220.821 40.5063 220.129 39.4169C219.455 38.3102 219.118 37.0479 219.118 35.6299C219.118 34.212 219.455 32.9583 220.129 31.8689C220.821 30.7795 221.764 29.9322 222.957 29.327C224.15 28.7044 225.516 28.3932 227.055 28.3932C228.594 28.3932 229.96 28.7044 231.153 29.327C232.364 29.9322 233.306 30.7795 233.98 31.8689C234.655 32.9583 234.992 34.212 234.992 35.6299C234.992 37.0479 234.655 38.3102 233.98 39.4169C233.306 40.5063 232.364 41.3622 231.153 41.9847C229.96 42.6072 228.594 42.9185 227.055 42.9185ZM227.055 39.0019C227.626 39.0019 228.127 38.8722 228.559 38.6128C229.009 38.3534 229.363 37.973 229.623 37.4715C229.882 36.9527 230.012 36.3389 230.012 35.6299C230.012 34.9209 229.882 34.3244 229.623 33.8402C229.363 33.3387 229.009 32.9583 228.559 32.6989C228.127 32.4395 227.626 32.3098 227.055 32.3098C226.502 32.3098 226 32.4395 225.55 32.6989C225.118 32.9583 224.764 33.3387 224.487 33.8402C224.228 34.3244 224.098 34.9209 224.098 35.6299C224.098 36.3389 224.228 36.9527 224.487 37.4715C224.764 37.973 225.118 38.3534 225.55 38.6128C226 38.8722 226.502 39.0019 227.055 39.0019ZM235.459 42.6851V28.6266H240.154V32.7248L239.454 31.5576C239.869 30.5028 240.543 29.716 241.477 29.1973C242.411 28.6612 243.543 28.3932 244.875 28.3932V32.8286C244.65 32.794 244.451 32.7767 244.278 32.7767C244.123 32.7594 243.95 32.7508 243.759 32.7508C242.756 32.7508 241.944 33.0275 241.321 33.5808C240.699 34.1169 240.387 34.9987 240.387 36.2265V42.6851H235.459Z" fill="white"/>
<path d="M70.7401 43.0335H59.0237C58.3458 43.0335 57.7928 43.2399 57.3649 43.6525C56.9369 44.0652 56.6793 44.5368 56.592 45.0673C56.5036 45.5979 56.585 46.1137 56.8361 46.6148C57.0872 47.1158 57.5364 47.4843 58.1837 47.7201L68.3084 51.7434C68.6031 51.8613 68.8908 51.8985 69.1714 51.8548C69.452 51.8112 69.7096 51.7151 69.9442 51.5666C70.18 51.4192 70.3716 51.2205 70.519 50.9706C70.6664 50.7206 70.7401 50.433 70.7401 50.1076V43.0335ZM60.129 16.506C62.0744 16.506 63.7397 17.1986 65.1251 18.584C66.5104 19.9693 67.2031 21.6346 67.2031 23.58C67.2031 25.5254 66.5104 27.1907 65.1251 28.576C63.7397 29.9613 62.0744 30.654 60.129 30.654C58.1837 30.654 56.5183 29.9613 55.133 28.576C53.7477 27.1907 53.055 25.5254 53.055 23.58C53.055 21.6346 53.7477 19.9693 55.133 18.584C56.5183 17.1986 58.1837 16.506 60.129 16.506ZM76.4435 32.4225C77.2983 32.4225 78.0351 32.7102 78.6541 33.2855C79.2731 33.8609 79.5826 34.5754 79.5826 35.429C79.5826 36.1069 79.391 36.7259 79.0078 37.2859C78.6246 37.8459 78.1088 38.2438 77.4604 38.4796L74.2771 39.4965H59.0237C57.3436 39.4965 55.9288 40.0713 54.7793 41.2208C53.6298 42.3704 53.055 43.7852 53.055 45.4652C53.055 45.9958 53.1287 46.5045 53.2761 46.9915C53.4235 47.4784 53.6151 47.9276 53.8509 48.3391H47.7495V41.265C47.7495 38.8186 48.612 36.733 50.3368 35.0081C52.0617 33.2832 54.1468 32.4213 56.592 32.4225H76.4435Z" fill="white"/>
</svg>
