<svg width="114" height="126" viewBox="0 0 114 126" fill="none" xmlns="http://www.w3.org/2000/svg">
    <path d="M82 94.25H40.5938C38.1979 94.25 36.2438 94.9792 34.7313 96.4375C33.2188 97.8958 32.3083 99.5625 32 101.438C31.6875 103.312 31.975 105.135 32.8625 106.906C33.75 108.677 35.3375 109.979 37.625 110.812L73.4062 125.031C74.4479 125.448 75.4646 125.579 76.4563 125.425C77.4479 125.271 78.3583 124.931 79.1875 124.406C80.0208 123.885 80.6979 123.183 81.2188 122.3C81.7396 121.417 82 120.4 82 119.25V94.25ZM44.5 0.5C51.375 0.5 57.2604 2.94792 62.1562 7.84375C67.0521 12.7396 69.5 18.625 69.5 25.5C69.5 32.375 67.0521 38.2604 62.1562 43.1562C57.2604 48.0521 51.375 50.5 44.5 50.5C37.625 50.5 31.7396 48.0521 26.8438 43.1562C21.9479 38.2604 19.5 32.375 19.5 25.5C19.5 18.625 21.9479 12.7396 26.8438 7.84375C31.7396 2.94792 37.625 0.5 44.5 0.5ZM102.156 56.75C105.177 56.75 107.781 57.7667 109.969 59.8C112.156 61.8333 113.25 64.3583 113.25 67.375C113.25 69.7708 112.573 71.9583 111.219 73.9375C109.865 75.9167 108.042 77.3229 105.75 78.1562L94.5 81.75H40.5938C34.6562 81.75 29.6562 83.7812 25.5938 87.8438C21.5312 91.9062 19.5 96.9062 19.5 102.844C19.5 104.719 19.7604 106.517 20.2812 108.238C20.8021 109.958 21.4792 111.546 22.3125 113H0.75V88C0.75 79.3542 3.79792 71.9833 9.89375 65.8875C15.9896 59.7917 23.3583 56.7458 32 56.75H102.156Z" fill="white"/>
</svg>