<svg width="120" height="120" viewBox="0 0 120 120" fill="none" xmlns="http://www.w3.org/2000/svg">
<path d="M80 85H46.875C44.9583 85 43.395 85.5833 42.185 86.75C40.975 87.9167 40.2467 89.25 40 90.75C39.75 92.25 39.98 93.7083 40.69 95.125C41.4 96.5417 42.67 97.5833 44.5 98.25L73.125 109.625C73.9583 109.958 74.7717 110.063 75.565 109.94C76.3583 109.817 77.0867 109.545 77.75 109.125C78.4167 108.708 78.9583 108.147 79.375 107.44C79.7917 106.733 80 105.92 80 105V85ZM50 10C55.5 10 60.2083 11.9583 64.125 15.875C68.0417 19.7917 70 24.5 70 30C70 35.5 68.0417 40.2083 64.125 44.125C60.2083 48.0417 55.5 50 50 50C44.5 50 39.7917 48.0417 35.875 44.125C31.9583 40.2083 30 35.5 30 30C30 24.5 31.9583 19.7917 35.875 15.875C39.7917 11.9583 44.5 10 50 10ZM96.125 55C98.5417 55 100.625 55.8133 102.375 57.44C104.125 59.0667 105 61.0867 105 63.5C105 65.4167 104.458 67.1667 103.375 68.75C102.292 70.3333 100.833 71.4583 99 72.125L90 75H46.875C42.125 75 38.125 76.625 34.875 79.875C31.625 83.125 30 87.125 30 91.875C30 93.375 30.2083 94.8133 30.625 96.19C31.0417 97.5667 31.5833 98.8367 32.25 100H15V80C15 73.0833 17.4383 67.1867 22.315 62.31C27.1917 57.4333 33.0867 54.9967 40 55H96.125Z" fill="#1A998E"/>
</svg>
