<svg width="19" height="22" viewBox="0 0 19 22" fill="none" xmlns="http://www.w3.org/2000/svg">
<path d="M7.00178 18.6636C7.54335 18.549 10.8434 18.549 11.385 18.6636C11.8479 18.7705 12.3486 19.0204 12.3486 19.5659C12.3217 20.0853 12.017 20.5457 11.596 20.8381C11.0501 21.2636 10.4095 21.5331 9.73978 21.6302C9.36941 21.6783 9.00549 21.6793 8.64803 21.6302C7.97725 21.5331 7.33663 21.2636 6.79183 20.837C6.36977 20.5457 6.06506 20.0853 6.03815 19.5659C6.03815 19.0204 6.53881 18.7705 7.00178 18.6636ZM9.25732 0C11.5108 0 13.8128 1.06927 15.1802 2.84339C16.0673 3.98576 16.4743 5.12704 16.4743 6.90116V7.36269C16.4743 8.72328 16.8339 9.52524 17.6253 10.4494C18.225 11.1302 18.4167 12.0042 18.4167 12.9524C18.4167 13.8994 18.1055 14.7985 17.4821 15.5284C16.666 16.4035 15.515 16.9621 14.3403 17.0592C12.6381 17.2043 10.9348 17.3265 9.20887 17.3265C7.48187 17.3265 5.77964 17.2534 4.0774 17.0592C2.90166 16.9621 1.75069 16.4035 0.935638 15.5284C0.312238 14.7985 0 13.8994 0 12.9524C0 12.0042 0.192726 11.1302 0.791362 10.4494C1.60749 9.52524 1.94341 8.72328 1.94341 7.36269V6.90116C1.94341 5.07903 2.39777 3.88756 3.33341 2.72118C4.72449 1.02017 6.9543 0 9.16042 0H9.25732Z" fill="white"/>
</svg>
